<svg width="24" height="24" viewBox="0 0 24 24" fill="none" xmlns="http://www.w3.org/2000/svg">
<g id="Social">
<g id="Vector">
<path d="M15.0001 21.8791H9.00012C5.21012 21.8791 2.12012 18.7991 2.12012 14.9991V8.99914C2.12012 5.20914 5.20012 2.11914 9.00012 2.11914H15.0001C18.7901 2.11914 21.8801 5.19914 21.8801 8.99914V14.9991C21.8801 18.7891 18.8001 21.8791 15.0001 21.8791ZM9.00012 3.87914C6.17012 3.87914 3.88012 6.17914 3.88012 8.99914V14.9991C3.88012 17.8291 6.18012 20.1191 9.00012 20.1191H15.0001C17.8301 20.1191 20.1201 17.8191 20.1201 14.9991V8.99914C20.1201 6.16914 17.8201 3.87914 15.0001 3.87914H9.00012Z" fill="white"/>
<path d="M12.0001 16.9691C9.26012 16.9691 7.03012 14.7391 7.03012 11.9991C7.03012 9.25914 9.26012 7.02914 12.0001 7.02914C14.7401 7.02914 16.9701 9.25914 16.9701 11.9991C16.9701 14.7391 14.7401 16.9691 12.0001 16.9691ZM12.0001 8.78914C10.2301 8.78914 8.78012 10.2291 8.78012 12.0091C8.78012 13.7891 10.2201 15.2291 12.0001 15.2291C13.7801 15.2291 15.2201 13.7891 15.2201 12.0091C15.2201 10.2291 13.7801 8.78914 12.0001 8.78914Z" fill="white"/>
<path d="M17.2401 7.90914C17.8752 7.90914 18.3901 7.39427 18.3901 6.75914C18.3901 6.12401 17.8752 5.60914 17.2401 5.60914C16.605 5.60914 16.0901 6.12401 16.0901 6.75914C16.0901 7.39427 16.605 7.90914 17.2401 7.90914Z" fill="white"/>
</g>
</g>
</svg>
