<svg width="24" height="24" viewBox="0 0 24 24" fill="none" xmlns="http://www.w3.org/2000/svg">
<g id="Social">
<path id="Vector" d="M3 5.09C3 4.48 3.2 3.98 3.61 3.59C4.02 3.2 4.54 3 5.19 3C5.84 3 6.34 3.19 6.74 3.58C7.15 3.98 7.35 4.5 7.35 5.15C7.35 5.73 7.15 6.21 6.76 6.6C6.35 7 5.82 7.2 5.16 7.2H5.14C4.5 7.2 3.99 7 3.59 6.6C3.2 6.2 3 5.7 3 5.09ZM3.23 21V8.85H7.09V21H3.23ZM9.22 21H13.08V14.22C13.08 13.79 13.13 13.47 13.22 13.24C13.38 12.82 13.63 12.48 13.96 12.19C14.29 11.91 14.7 11.76 15.2 11.76C16.5 11.76 17.15 12.68 17.15 14.51V21H21.01V14.04C21.01 12.24 20.6 10.88 19.79 9.95C18.98 9.03 17.91 8.56 16.58 8.56C15.09 8.56 13.92 9.24 13.09 10.58V10.62H13.07L13.09 10.58V8.85H9.23C9.25 9.24 9.27 10.45 9.27 12.47C9.27 14.49 9.26 17.34 9.23 21H9.22Z" fill="white"/>
</g>
</svg>
