<svg width="24" height="24" viewBox="0 0 24 24" fill="none" xmlns="http://www.w3.org/2000/svg">
<g id="Social">
<path id="Vector" d="M15.55 9.06C15.55 9.06 15.55 9.09 15.55 9.11C15.55 9.15 15.55 9.2 15.55 9.24C15.55 11.26 15.55 13.28 15.55 15.3C15.55 16.99 14.91 18.4 13.66 19.54C12.86 20.27 11.91 20.73 10.84 20.92C10.39 21 9.94001 21.02 9.49001 20.99C6.89001 20.81 4.86001 18.93 4.32001 16.62C4.18001 16.02 4.13001 15.41 4.19001 14.8C4.37001 12.85 5.48001 11.29 6.93001 10.42C7.58001 10.03 8.29001 9.77 9.05001 9.66C9.55001 9.59 10.05 9.58 10.54 9.65C10.56 9.65 10.58 9.65 10.6 9.66C10.6 9.66 10.6 9.66 10.62 9.66C10.62 9.69 10.62 9.72 10.63 9.75C10.65 10.5 10.63 12.64 10.62 12.78C10.58 12.8 10.55 12.78 10.51 12.78C10.26 12.71 10 12.69 9.74001 12.7C9.13001 12.73 8.60001 12.95 8.14001 13.35C7.63001 13.8 7.34001 14.37 7.28001 15.04C7.17001 16.25 7.87001 17.24 8.81001 17.66C10.36 18.35 12.09 17.4 12.41 15.8C12.44 15.63 12.46 15.45 12.46 15.27C12.46 13.6 12.46 11.93 12.46 10.27C12.46 7.91 12.46 5.55 12.46 3.19C12.46 3.13 12.46 3.07 12.46 3.02C12.47 3.01 12.48 3 12.48 3C12.48 3 12.48 3 12.49 3C13.48 3 14.47 3 15.46 3C15.47 3 15.49 3 15.5 3C15.5 3 15.52 3 15.54 3.02C15.54 3.1 15.55 3.19 15.56 3.27C15.58 3.64 15.65 4 15.77 4.36C16.25 5.8 17.48 6.9 18.96 7.21C19.2 7.26 19.43 7.29 19.67 7.3C19.72 7.3 19.78 7.3 19.83 7.32C19.83 7.34 19.84 7.37 19.84 7.4C19.84 7.48 19.84 7.55 19.84 7.63V10.21C19.84 10.27 19.84 10.32 19.84 10.39C19.8 10.39 19.77 10.4 19.74 10.4C19.39 10.4 19.05 10.37 18.71 10.31C17.92 10.19 17.16 9.94 16.45 9.57C16.18 9.43 15.91 9.27 15.66 9.1C15.63 9.08 15.61 9.04 15.55 9.06Z" fill="white"/>
</g>
</svg>
