<svg width="24" height="24" viewBox="0 0 24 24" fill="none" xmlns="http://www.w3.org/2000/svg">
<g id="Social">
<g id="Vector">
<path d="M11.9999 19.9201C11.4099 19.9201 6.19988 19.9101 4.71988 19.4601C3.63988 19.1301 2.80988 18.2001 2.52988 17.0501C2.12988 15.4001 2.12988 12.1301 2.12988 12.0001C2.12988 11.8701 2.12988 8.61008 2.52988 6.96008C2.80988 5.79008 3.64988 4.86008 4.71988 4.54008C6.19988 4.10008 11.4099 4.08008 11.9999 4.08008C12.5899 4.08008 17.7999 4.09008 19.2799 4.54008C20.3499 4.86008 21.1899 5.78008 21.4699 6.96008C21.8599 8.61008 21.8699 11.8601 21.8699 12.0001C21.8699 12.1401 21.8699 15.4001 21.4699 17.0501C21.1899 18.2101 20.3599 19.1301 19.2899 19.4601C17.7999 19.9101 12.5899 19.9201 11.9999 19.9201ZM11.9999 5.83008C9.86988 5.83008 6.14988 5.93008 5.21988 6.21008C4.73988 6.35008 4.35988 6.79008 4.22988 7.35008C3.87988 8.80008 3.87988 11.9601 3.87988 11.9901C3.87988 12.0201 3.87988 15.1901 4.22988 16.6401C4.35988 17.2001 4.74988 17.6401 5.22988 17.7901C6.14988 18.0701 9.87988 18.1701 11.9999 18.1701C14.1199 18.1701 17.8499 18.0701 18.7799 17.7901C19.2499 17.6401 19.6399 17.2001 19.7699 16.6401C20.1199 15.1901 20.1199 12.0301 20.1199 12.0001C20.1199 11.9701 20.1199 8.81008 19.7699 7.36008C19.6399 6.79008 19.2599 6.36008 18.7799 6.21008C17.8499 5.93008 14.1199 5.83008 11.9999 5.83008Z" fill="white"/>
<path d="M10.1599 9.03008V14.9801L14.8699 12.0001L10.1599 9.03008Z" fill="white"/>
</g>
</g>
</svg>
