<?xml version="1.0" encoding="utf-8"?>
<!-- Generator: Adobe Illustrator 26.2.1, SVG Export Plug-In . SVG Version: 6.00 Build 0)  -->
<svg version="1.1" xmlns="http://www.w3.org/2000/svg" xmlns:xlink="http://www.w3.org/1999/xlink" x="0px" y="0px"
	 viewBox="0 0 768 1024" style="enable-background:new 0 0 768 1024;" xml:space="preserve">
<style type="text/css">
	.st0{fill:#B7DCDF;}
	.st1{fill:#8C5834;}
	.st2{fill:#764722;}
	.st3{fill:#593314;}
	.st4{fill:#442816;}
	.st5{fill:#2F2012;}
	.st6{fill:#EAEAEA;}
	.st7{fill:#BDCF56;}
	.st8{fill:#99AF45;}
	.st9{fill:#FFFFFF;}
	.st10{fill:#029CD8;}
	.st11{fill:#0D68B2;}
	.st12{fill:#104C8F;}
	.st13{fill:#EDECED;}
	.st14{fill:#BC2135;}
	.st15{fill:#E11D38;}
	.st16{fill:#24356E;}
	.st17{fill:#C1C0C0;}
	.st18{fill:#838383;}
	.st19{fill:#93D9F7;}
	.st20{fill:#808181;}
	.st21{fill:#646767;}
	.st22{fill:#525453;}
</style>
<g id="BG">
	<g>
		<rect class="st0" width="768" height="435.34"/>
	</g>
	<g>
		<rect x="0" y="434.47" class="st1" width="768" height="396.4"/>
	</g>
	<g>
		<rect x="0" y="524.03" class="st2" width="768" height="309.24"/>
	</g>
	<g>
		<path class="st3" d="M768,573.28c-47.13-0.84-94.52,0.44-140.35,5.47C385.12,605.36,221.76,610.12,0,598.71v246.84l768,7.74
			V573.28z"/>
	</g>
	<g>
		<path class="st4" d="M768,659.74c-16.51,0.31-34.1,1.27-53.26,3.03c-222.65,20.49-238.89,36.95-366.23,31.7
			c-91.75-3.78-176.53-21.14-290.59,0c-20.35,3.77-39.34,6.58-57.92,8.37v99.62h768V659.74z"/>
	</g>
	<g>
		<path class="st5" d="M768,763.66c-8.97-1.56-17.84-3.2-26.59-4.95c-115.23-22.99-205.85-4.4-294.53,11.58
			c-78.57,14.16-118.77,3.37-219.06-2.47C129.6,762.11,99.78,788.67,0,772.76v192.66h768V763.66z"/>
	</g>
	<g>
		<path d="M768,858.56c-98.42-13.06-172.7-28.3-278.81,0.34c-135.78,36.65-191.95,22.14-289.85,13.44
			c-96.93-8.61-116.71-0.29-199.34,15.1V1024h768V858.56z"/>
	</g>
	<g>
		<path class="st6" d="M56.24,989.86h-3.55v-9.1h3.55c2.86,0,4.84,1.96,4.84,4.52v0.03C61.08,987.87,59.1,989.86,56.24,989.86z
			 M58.98,985.31c0-1.61-1.11-2.74-2.74-2.74h-1.55v5.49h1.55c1.64,0,2.74-1.11,2.74-2.72V985.31z"/>
		<path class="st6" d="M66.07,990.02c-2.16,0-3.76-1.6-3.76-3.6v-0.03c0-2,1.61-3.63,3.78-3.63c2.16,0,3.76,1.6,3.76,3.6v0.03
			C69.85,988.39,68.24,990.02,66.07,990.02z M67.9,986.39c0-1.03-0.74-1.92-1.83-1.92c-1.13,0-1.81,0.87-1.81,1.9v0.03
			c0,1.03,0.74,1.92,1.83,1.92c1.13,0,1.81-0.87,1.81-1.9V986.39z"/>
		<path class="st6" d="M77.76,987.07h-4.85c0.2,0.9,0.82,1.37,1.7,1.37c0.66,0,1.14-0.21,1.69-0.72l1.13,1
			c-0.65,0.81-1.59,1.3-2.85,1.3c-2.09,0-3.64-1.47-3.64-3.6v-0.03c0-1.99,1.42-3.63,3.45-3.63c2.33,0,3.39,1.81,3.39,3.78v0.03
			C77.78,986.77,77.77,986.89,77.76,987.07z M74.39,984.35c-0.82,0-1.35,0.59-1.51,1.48h2.98
			C75.74,984.95,75.22,984.35,74.39,984.35z"/>
		<path class="st6" d="M81.69,989.99c-0.97,0-2.07-0.33-2.99-1.05l0.84-1.3c0.75,0.55,1.55,0.83,2.2,0.83
			c0.57,0,0.83-0.21,0.83-0.52v-0.03c0-0.43-0.68-0.57-1.44-0.81c-0.98-0.29-2.08-0.74-2.08-2.09V985c0-1.42,1.14-2.21,2.55-2.21
			c0.88,0,1.85,0.3,2.6,0.81l-0.75,1.37c-0.69-0.4-1.38-0.65-1.88-0.65c-0.48,0-0.73,0.21-0.73,0.48v0.03
			c0,0.39,0.66,0.57,1.42,0.83c0.98,0.33,2.11,0.79,2.11,2.07v0.03C84.36,989.29,83.2,989.99,81.69,989.99z"/>
		<path class="st6" d="M90.18,989.86v-3.89c0-0.94-0.44-1.42-1.2-1.42c-0.75,0-1.23,0.48-1.23,1.42v3.89h-1.98v-6.97h1.98v0.99
			c0.46-0.58,1.04-1.12,2.04-1.12c1.5,0,2.37,0.99,2.37,2.59v4.51H90.18z"/>
		<path class="st6" d="M93.97,980.76h2.21v0.07l-1.42,4.08h-1.03L93.97,980.76z"/>
		<path class="st6" d="M99.95,989.98c-1.21,0-2.03-0.48-2.03-2.09v-3.3h-0.83v-1.69h0.83v-1.78h1.98v1.78h1.64v1.69h-1.64v2.98
			c0,0.46,0.19,0.68,0.64,0.68c0.36,0,0.69-0.09,0.97-0.25v1.59C101.09,989.82,100.61,989.98,99.95,989.98z"/>
		<path class="st6" d="M110.98,984.83c-1.31,0-2.12,0.79-2.12,2.46v2.57h-1.98v-6.97h1.98v1.4c0.4-0.96,1.05-1.59,2.22-1.53v2.07
			H110.98z"/>
		<path class="st6" d="M118.6,987.07h-4.85c0.2,0.9,0.82,1.37,1.7,1.37c0.66,0,1.14-0.21,1.69-0.72l1.13,1
			c-0.65,0.81-1.59,1.3-2.85,1.3c-2.09,0-3.64-1.47-3.64-3.6v-0.03c0-1.99,1.42-3.63,3.45-3.63c2.33,0,3.39,1.81,3.39,3.78v0.03
			C118.62,986.77,118.61,986.89,118.6,987.07z M115.23,984.35c-0.82,0-1.35,0.59-1.51,1.48h2.98
			C116.58,984.95,116.06,984.35,115.23,984.35z"/>
		<path class="st6" d="M123.1,981.95c-0.45,0-0.71,0.23-0.71,0.75v0.27h1.6v1.61h-1.57v5.28h-1.98v-5.28h-0.82v-1.62h0.82v-0.44
			c0-1.53,0.77-2.24,2.16-2.24c0.62,0,1.04,0.08,1.4,0.19v1.64C123.71,982.01,123.43,981.95,123.1,981.95z"/>
		<path class="st6" d="M125.15,989.86v-9.49h1.98v9.49H125.15z"/>
		<path class="st6" d="M135.46,987.07h-4.85c0.2,0.9,0.82,1.37,1.7,1.37c0.66,0,1.14-0.21,1.69-0.72l1.13,1
			c-0.65,0.81-1.59,1.3-2.85,1.3c-2.09,0-3.64-1.47-3.64-3.6v-0.03c0-1.99,1.42-3.63,3.45-3.63c2.33,0,3.39,1.81,3.39,3.78v0.03
			C135.49,986.77,135.47,986.89,135.46,987.07z M132.09,984.35c-0.82,0-1.35,0.59-1.51,1.48h2.98
			C133.44,984.95,132.92,984.35,132.09,984.35z"/>
		<path class="st6" d="M140.24,990.02c-2.09,0-3.63-1.61-3.63-3.6v-0.03c0-1.99,1.52-3.63,3.65-3.63c1.31,0,2.13,0.44,2.78,1.17
			l-1.21,1.3c-0.44-0.47-0.88-0.77-1.59-0.77c-0.99,0-1.69,0.87-1.69,1.9v0.03c0,1.07,0.69,1.92,1.77,1.92
			c0.66,0,1.12-0.29,1.6-0.74l1.16,1.17C142.41,989.49,141.63,990.02,140.24,990.02z"/>
		<path class="st6" d="M146.73,989.98c-1.21,0-2.03-0.48-2.03-2.09v-3.3h-0.83v-1.69h0.83v-1.78h1.98v1.78h1.64v1.69h-1.64v2.98
			c0,0.46,0.19,0.68,0.64,0.68c0.36,0,0.69-0.09,0.97-0.25v1.59C147.87,989.82,147.39,989.98,146.73,989.98z"/>
		<path class="st6" d="M157.75,989.86v-0.75c-0.48,0.53-1.14,0.88-2.11,0.88c-1.31,0-2.39-0.75-2.39-2.13v-0.03
			c0-1.52,1.16-2.22,2.81-2.22c0.7,0,1.21,0.12,1.7,0.29v-0.12c0-0.82-0.51-1.27-1.5-1.27c-0.75,0-1.29,0.14-1.92,0.38l-0.49-1.51
			c0.77-0.34,1.52-0.56,2.7-0.56c2.16,0,3.11,1.12,3.11,3v4.04H157.75z M157.79,987.05c-0.34-0.16-0.78-0.26-1.26-0.26
			c-0.84,0-1.37,0.34-1.37,0.96v0.03c0,0.53,0.44,0.84,1.08,0.84c0.92,0,1.55-0.51,1.55-1.22V987.05z"/>
		<path class="st6" d="M164.66,990.02c-2.09,0-3.63-1.61-3.63-3.6v-0.03c0-1.99,1.52-3.63,3.65-3.63c1.31,0,2.13,0.44,2.78,1.17
			l-1.21,1.3c-0.44-0.47-0.88-0.77-1.59-0.77c-0.99,0-1.69,0.87-1.69,1.9v0.03c0,1.07,0.69,1.92,1.77,1.92
			c0.66,0,1.12-0.29,1.6-0.74l1.16,1.17C166.83,989.49,166.05,990.02,164.66,990.02z"/>
		<path class="st6" d="M171.14,989.98c-1.21,0-2.03-0.48-2.03-2.09v-3.3h-0.83v-1.69h0.83v-1.78h1.98v1.78h1.64v1.69h-1.64v2.98
			c0,0.46,0.19,0.68,0.64,0.68c0.36,0,0.69-0.09,0.97-0.25v1.59C172.29,989.82,171.81,989.98,171.14,989.98z"/>
		<path class="st6" d="M178.54,989.86v-0.99c-0.46,0.58-1.04,1.12-2.04,1.12c-1.5,0-2.37-0.99-2.37-2.59v-4.51h1.98v3.89
			c0,0.94,0.44,1.42,1.2,1.42s1.24-0.48,1.24-1.42v-3.89h1.98v6.97H178.54z"/>
		<path class="st6" d="M186.36,989.86v-0.75c-0.48,0.53-1.14,0.88-2.11,0.88c-1.31,0-2.39-0.75-2.39-2.13v-0.03
			c0-1.52,1.16-2.22,2.81-2.22c0.7,0,1.21,0.12,1.7,0.29v-0.12c0-0.82-0.51-1.27-1.5-1.27c-0.75,0-1.29,0.14-1.92,0.38l-0.49-1.51
			c0.77-0.34,1.52-0.56,2.7-0.56c2.16,0,3.11,1.12,3.11,3v4.04H186.36z M186.4,987.05c-0.34-0.16-0.78-0.26-1.26-0.26
			c-0.84,0-1.37,0.34-1.37,0.96v0.03c0,0.53,0.44,0.84,1.08,0.84c0.92,0,1.55-0.51,1.55-1.22V987.05z"/>
		<path class="st6" d="M190.07,989.86v-9.49h1.98v9.49H190.07z"/>
		<path class="st6" d="M200.25,989.99c-0.97,0-2.07-0.33-2.99-1.05l0.84-1.3c0.75,0.55,1.55,0.83,2.2,0.83
			c0.57,0,0.83-0.21,0.83-0.52v-0.03c0-0.43-0.68-0.57-1.44-0.81c-0.98-0.29-2.08-0.74-2.08-2.09V985c0-1.42,1.14-2.21,2.55-2.21
			c0.88,0,1.85,0.3,2.6,0.81l-0.75,1.37c-0.69-0.4-1.38-0.65-1.88-0.65c-0.48,0-0.73,0.21-0.73,0.48v0.03
			c0,0.39,0.66,0.57,1.42,0.83c0.98,0.33,2.11,0.79,2.11,2.07v0.03C202.91,989.29,201.76,989.99,200.25,989.99z"/>
		<path class="st6" d="M207.62,990.02c-2.09,0-3.63-1.61-3.63-3.6v-0.03c0-1.99,1.52-3.63,3.65-3.63c1.31,0,2.13,0.44,2.78,1.17
			l-1.21,1.3c-0.44-0.47-0.88-0.77-1.59-0.77c-0.99,0-1.69,0.87-1.69,1.9v0.03c0,1.07,0.69,1.92,1.77,1.92
			c0.66,0,1.12-0.29,1.6-0.74l1.16,1.17C209.79,989.49,209.01,990.02,207.62,990.02z"/>
		<path class="st6" d="M215.84,989.86v-0.75c-0.48,0.53-1.14,0.88-2.11,0.88c-1.31,0-2.39-0.75-2.39-2.13v-0.03
			c0-1.52,1.16-2.22,2.81-2.22c0.7,0,1.21,0.12,1.7,0.29v-0.12c0-0.82-0.51-1.27-1.5-1.27c-0.75,0-1.29,0.14-1.92,0.38l-0.49-1.51
			c0.77-0.34,1.52-0.56,2.7-0.56c2.16,0,3.11,1.12,3.11,3v4.04H215.84z M215.87,987.05c-0.34-0.16-0.78-0.26-1.26-0.26
			c-0.84,0-1.37,0.34-1.37,0.96v0.03c0,0.53,0.44,0.84,1.08,0.84c0.92,0,1.55-0.51,1.55-1.22V987.05z"/>
		<path class="st6" d="M219.54,989.86v-9.49h1.98v9.49H219.54z"/>
		<path class="st6" d="M229.85,987.07H225c0.2,0.9,0.82,1.37,1.7,1.37c0.66,0,1.14-0.21,1.69-0.72l1.13,1
			c-0.65,0.81-1.59,1.3-2.85,1.3c-2.09,0-3.64-1.47-3.64-3.6v-0.03c0-1.99,1.42-3.63,3.45-3.63c2.33,0,3.39,1.81,3.39,3.78v0.03
			C229.88,986.77,229.86,986.89,229.85,987.07z M226.48,984.35c-0.82,0-1.35,0.59-1.51,1.48h2.98
			C227.83,984.95,227.31,984.35,226.48,984.35z"/>
	</g>
</g>
<g id="mountain">
</g>
<g id="capture">
	<g>
		<polygon class="st7" points="768,132.21 308.48,300.28 137.57,252.97 0,338.64 0,434.88 29.41,435.05 768,435.05 		"/>
	</g>
	<g>
		<polygon class="st8" points="768,385.12 463.15,325.47 280.97,267.61 111.25,216.96 0,300.98 0,435.25 768,435.65 		"/>
	</g>
	<g>
		<path class="st7" d="M768,373.79l-304.68-48.5l-182.18-57.86l-169.72-50.65c0,0-42.92,75.2-0.55,80.92
			c42.37,5.72,9.95,34.66,63.42,45.29c53.46,10.63,330.67,38.64,380.13,39.23C574.3,382.47,768,395.89,768,395.89V373.79z"/>
	</g>
	<g>
		<g>
			<path class="st9" d="M288.01,157.61c-2.13-12.59-13.07-22.19-26.27-22.19c-2.48,0-4.86,0.37-7.14,1c0,0,0,0,0,0
				c-5.22-7.29-13.75-12.06-23.4-12.06c-12.62,0-23.32,8.13-27.21,19.43c-0.82,2.05-1.58,6.08-1.58,9.36c0,1.52,0.15,3.01,0.38,4.46
				L288.01,157.61z"/>
		</g>
		<g>
			<path class="st9" d="M203.99,143.79c-2.67-2.19-5.77-3.87-9.16-4.89c-7.56-21.11-27.73-36.22-51.44-36.22
				c-18.63,0-35.07,9.33-44.93,23.56c-17.8,0.89-32.3,14.14-35.11,31.37h149.49C211.4,152.11,208.27,147.29,203.99,143.79z"/>
		</g>
	</g>
	<g>
		<path class="st9" d="M580.12,84.5c-2.21,0-4.31,0.46-6.22,1.27c-4.2-4.5-10.17-7.33-16.82-7.33c-3.79,0-7.36,0.93-10.51,2.55
			c-5.95-19.25-23.88-33.24-45.09-33.24c-13.82,0-26.22,5.98-34.85,15.45c-2.22-0.48-4.53-0.75-6.9-0.75
			c-17.9,0-32.41,14.51-32.41,32.41c0,1.85,0.19,3.66,0.49,5.43h168.1C595.92,91.58,588.85,84.5,580.12,84.5z"/>
	</g>
	<g>
		<path class="st10" d="M295.24,340.74c-3.71,0-6.73,3.01-6.73,6.73v16.23v0h-0.9c-2.09,0-4.11,0.33-6,0.93
			c-2.78,0.88-5.29,2.37-7.39,4.3c-3.92,3.61-6.38,8.79-6.38,14.55v51.87h36.38V363.7v-22.96H295.24z"/>
	</g>
	<g>
		<path class="st11" d="M320.56,363.7h-0.9l-0.2,0v-16.23c0-3.71-3.01-6.73-6.73-6.73h-8.51v22.96v71.65h36.11v-51.87
			C340.33,372.55,331.48,363.7,320.56,363.7z"/>
	</g>
	<g>
		<g>
			<path class="st12" d="M307.91,340.74h-7.39v-10.65c0-6.19,5.04-11.23,11.23-11.23h7.71v7.39h-7.71c-2.12,0-3.84,1.72-3.84,3.84
				V340.74z"/>
		</g>
	</g>
	<g>
		<g>
			<path class="st11" d="M370.36,217.35c0,0-7.09-9.18-21.38-9.18s-21.38,9.18-21.38,9.18H370.36z"/>
		</g>
	</g>
	<g>
		<path class="st13" d="M348.99,217.35h21.38v64.51h0.53c4.18,0,7.56,3.39,7.56,7.56v145.93h-29.47V281.85V217.35z"/>
	</g>
	<g>
		<path class="st9" d="M327.08,281.85h0.53v-64.51h21.38v64.51v153.49h-29.47V289.42C319.51,285.24,322.9,281.85,327.08,281.85z"/>
	</g>
	<g>
		<g>
			<rect x="348.99" y="304.98" class="st12" width="29.47" height="7.39"/>
		</g>
	</g>
	<g>
		<g>
			<rect x="319.46" y="304.98" class="st11" width="29.47" height="7.39"/>
		</g>
	</g>
	<g>
		<g>
			<rect x="348.99" y="346.77" class="st14" width="29.47" height="7.34"/>
		</g>
	</g>
	<g>
		<g>
			<rect x="319.46" y="346.75" class="st15" width="29.47" height="7.39"/>
		</g>
	</g>
	<g>
		<rect x="378.46" y="318.94" class="st12" width="136.85" height="7.39"/>
	</g>
	<g>
		<path class="st12" d="M690.29,212.74h-30.57c-2.62,0-4.75-2.13-4.75-4.75v-28.49c0-2.62,2.13-4.75,4.75-4.75h30.57
			c2.62,0,4.75,2.13,4.75,4.75v28.49C695.04,210.6,692.91,212.74,690.29,212.74z M659.72,178.74c-0.41,0-0.75,0.34-0.75,0.75v28.49
			c0,0.41,0.34,0.75,0.75,0.75h30.57c0.41,0,0.75-0.34,0.75-0.75v-28.49c0-0.41-0.34-0.75-0.75-0.75H659.72z"/>
	</g>
	<g>
		<g>
			<path class="st12" d="M546.87,351.28h-7.81v-86.24c0-14.17,11.53-25.69,25.69-25.69H689.1v7.81H564.76
				c-9.86,0-17.89,8.02-17.89,17.89V351.28z"/>
		</g>
		<g>
			<path class="st12" d="M653.3,343.9h-4.34v-29.99c0-7.88,6.41-14.29,14.29-14.29h23.71v4.34h-23.71c-5.49,0-9.95,4.46-9.95,9.95
				V343.9z"/>
		</g>
		<g>
			<path class="st12" d="M634.58,384.69h4.34v-42.06c0-7.88-6.41-14.29-14.29-14.29h-50.89v4.34h50.89c5.49,0,9.95,4.46,9.95,9.95
				V384.69z"/>
		</g>
	</g>
	<g>
		<g>
			<path class="st12" d="M648.96,348.3c-11.09,0-20.07,8.99-20.07,20.07v67.01h40.14v-67.01
				C669.03,357.29,660.04,348.3,648.96,348.3z"/>
		</g>
		<g>
			<rect x="643.94" y="324.89" class="st12" width="25.09" height="60.22"/>
		</g>
	</g>
	<g>
		<ellipse class="st11" cx="689.1" cy="162.37" rx="20.07" ry="10.04"/>
	</g>
	<g>
		<rect x="669.03" y="162.37" class="st9" width="40.14" height="67.24"/>
	</g>
	<g>
		<rect x="704.16" y="162.37" class="st13" width="5.02" height="67.24"/>
	</g>
	<g>
		<rect x="664.01" y="229.91" class="st9" width="50.18" height="205.48"/>
	</g>
	<g>
		<rect x="704.16" y="230" class="st13" width="10.04" height="205.39"/>
	</g>
	<g>
		<polygon class="st11" points="714.19,229.62 664.01,229.62 669.03,224.6 709.17,224.6 		"/>
	</g>
	<g>
		<g>
			<rect x="664.01" y="254.71" class="st11" width="50.18" height="5.02"/>
		</g>
		<g>
			<rect x="664.01" y="289.83" class="st11" width="50.18" height="5.02"/>
		</g>
		<g>
			<rect x="664.01" y="324.96" class="st11" width="50.18" height="5.02"/>
		</g>
		<g>
			<rect x="664.01" y="360.08" class="st11" width="50.18" height="5.02"/>
		</g>
		<g>
			<rect x="664.01" y="395.21" class="st11" width="50.18" height="5.02"/>
		</g>
	</g>
	<g>
		<g>
			<rect x="704.16" y="254.71" class="st16" width="10.04" height="5.02"/>
		</g>
		<g>
			<rect x="704.16" y="289.83" class="st16" width="10.04" height="5.02"/>
		</g>
		<g>
			<rect x="704.16" y="324.96" class="st16" width="10.04" height="5.02"/>
		</g>
		<g>
			<rect x="704.16" y="360.08" class="st16" width="10.04" height="5.02"/>
		</g>
		<g>
			<rect x="704.16" y="395.21" class="st16" width="10.04" height="5.02"/>
		</g>
	</g>
	<g>
		<g>
			<polygon class="st9" points="563.65,279.8 608.81,304.89 608.81,435.35 563.65,435.35 			"/>
		</g>
		<g>
			<polygon class="st9" points="518.49,279.8 563.65,304.89 563.65,435.35 518.49,435.35 			"/>
		</g>
		<g>
			<circle class="st9" cx="508.46" cy="334.99" r="30.11"/>
		</g>
		<g>
			<rect x="478.35" y="334.99" class="st9" width="60.22" height="100.36"/>
		</g>
	</g>
	<g>
		<path class="st17" d="M508.46,309.9c-13.86,0-25.09,11.23-25.09,25.09v70.25c0,13.86,11.23,25.09,25.09,25.09
			c13.86,0,25.09-11.23,25.09-25.09v-70.25C533.55,321.14,522.31,309.9,508.46,309.9z"/>
	</g>
	<g>
		<rect x="488.38" y="329.98" class="st12" width="40.14" height="80.29"/>
	</g>
	<g>
		<path class="st18" d="M686.33,336.7c-4.8,0-8.7,3.9-8.7,8.7v12.93h0v57.74c0,2.95-2.4,5.36-5.36,5.36h-22.32v3.35h22.32
			c4.8,0,8.7-3.9,8.7-8.7v-28.75h0V345.4c0-2.95,2.4-5.36,5.36-5.36h6.32v-3.35H686.33z"/>
	</g>
	<g>
		<circle class="st19" cx="516.54" cy="361.06" r="2.47"/>
	</g>
	<g>
		<circle class="st19" cx="522.66" cy="369.22" r="2.47"/>
	</g>
	<g>
		<circle class="st19" cx="493.41" cy="341.03" r="2.47"/>
	</g>
	<g>
		<circle class="st19" cx="509.16" cy="344.29" r="2.47"/>
	</g>
	<g>
		<circle class="st19" cx="517.38" cy="335.59" r="2.47"/>
	</g>
	<g>
		<circle class="st19" cx="522.66" cy="351.15" r="2.47"/>
	</g>
	<g>
		<circle class="st19" cx="515.19" cy="372.59" r="2.47"/>
	</g>
	<g>
		<circle class="st19" cx="523.95" cy="379.97" r="2.47"/>
	</g>
	<g>
		<circle class="st19" cx="506.69" cy="367.57" r="2.47"/>
	</g>
	<g>
		<circle class="st19" cx="498.04" cy="386.48" r="2.47"/>
	</g>
	<g>
		<circle class="st19" cx="497.88" cy="359.53" r="2.47"/>
	</g>
	<g>
		<circle class="st19" cx="510.53" cy="384.45" r="2.47"/>
	</g>
	<g>
		<circle class="st19" cx="520.19" cy="388.94" r="2.47"/>
	</g>
	<g>
		<circle class="st19" cx="523.5" cy="396.97" r="2.47"/>
	</g>
	<g>
		<circle class="st19" cx="517.78" cy="402.25" r="2.47"/>
	</g>
	<g>
		<circle class="st19" cx="498.04" cy="396.38" r="2.47"/>
	</g>
	<g>
		<circle class="st19" cx="493.38" cy="404.89" r="2.47"/>
	</g>
	<g>
		<circle class="st19" cx="510.53" cy="396.38" r="2.47"/>
	</g>
	<g>
		<circle class="st19" cx="503.59" cy="405.28" r="2.47"/>
	</g>
	<g>
		<path class="st19" d="M496.88,373.94c0-1.36,1.1-2.47,2.47-2.47l0,0c1.37,0,2.47,1.1,2.47,2.47l0,0c0,1.37-1.1,2.47-2.47,2.47l0,0
			C497.98,376.4,496.88,375.3,496.88,373.94z"/>
	</g>
	<g>
		<g>
			<path class="st12" d="M567.93,361.57l-2.24-1.59c-0.64,0.78-1.3,1.3-2.42,1.3c-1.5,0-2.56-1.26-2.56-2.86v-0.03
				c0-1.56,1.06-2.83,2.56-2.83c1.03,0,1.73,0.49,2.34,1.26l2.24-1.73c-0.95-1.32-2.36-2.24-4.55-2.24c-3.25,0-5.65,2.45-5.65,5.57
				v0.03c0,3.2,2.46,5.54,5.53,5.54C565.56,363.98,566.92,362.96,567.93,361.57z"/>
		</g>
		<g>
			<path class="st12" d="M574.43,363.98c3.31,0,5.79-2.5,5.79-5.57v-0.03c0-3.08-2.45-5.54-5.76-5.54c-3.31,0-5.79,2.5-5.79,5.57
				v0.03C568.68,361.52,571.13,363.98,574.43,363.98z M571.72,358.38c0-1.55,1.09-2.86,2.71-2.86c1.64,0,2.76,1.35,2.76,2.89v0.03
				c0,1.55-1.09,2.86-2.72,2.86c-1.62,0-2.74-1.35-2.74-2.89V358.38z"/>
		</g>
		<g>
			<path class="st12" d="M545.56,377.6c-0.98,0-1.65-0.81-1.65-1.88v-0.03c0-1.01,0.69-1.84,1.62-1.84c0.7,0,1.15,0.32,1.55,0.87
				l1.97-1.47c-0.7-1.12-1.84-1.85-3.54-1.85c-2.62,0-4.44,1.97-4.44,4.32v0.03c0,2.34,1.84,4.3,4.33,4.3c1.82,0,2.92-0.77,3.69-1.9
				l-1.94-1.41C546.69,377.28,546.25,377.6,545.56,377.6z"/>
		</g>
		<g>
			<path class="st12" d="M553.91,371.44c-1.42,0-2.42,0.26-3.35,0.64l0.6,2.05c0.73-0.29,1.41-0.46,2.28-0.46
				c1.12,0,1.65,0.49,1.65,1.35v0.14c-0.47-0.17-1.22-0.32-1.99-0.32c-1.94,0-3.25,0.89-3.25,2.6v0.03c0,1.65,1.21,2.56,2.79,2.56
				c1.09,0,1.87-0.41,2.43-1.04v0.86h2.88v-4.76c0-1.16-0.26-2.02-0.89-2.63C556.41,371.8,555.4,371.44,553.91,371.44z
				 M555.12,376.85c0,0.83-0.6,1.36-1.44,1.36c-0.6,0-1.03-0.34-1.03-0.9v-0.03c0-0.61,0.49-1.03,1.33-1.03
				c0.43,0,0.84,0.09,1.13,0.21V376.85z"/>
		</g>
		<g>
			<path class="st12" d="M565.01,371.38c-1.24,0-1.94,0.6-2.51,1.29v-1.1h-2.91v10.73h2.91v-3.46c0.54,0.63,1.27,1.19,2.53,1.19
				c1.96,0,3.66-1.64,3.66-4.33v-0.03C568.69,373.02,566.99,371.38,565.01,371.38z M565.82,375.72c0,1.12-0.75,1.88-1.7,1.88
				c-0.93,0-1.68-0.78-1.68-1.88v-0.03c0-1.09,0.75-1.87,1.68-1.87c0.95,0,1.7,0.78,1.7,1.87V375.72z"/>
		</g>
		<g>
			<path class="st12" d="M573.43,369.47h-2.91v2.1h-0.98v2.34h0.98v3.37c0,1.97,1.04,2.74,2.79,2.74c0.81,0,1.5-0.18,2.02-0.47
				v-2.28c-0.35,0.17-0.72,0.28-1.1,0.28c-0.54,0-0.8-0.25-0.8-0.83v-2.8h1.93v-2.34h-1.93V369.47z"/>
		</g>
		<g>
			<path class="st12" d="M582,376.05c0,0.9-0.52,1.39-1.21,1.39c-0.7,0-1.18-0.49-1.18-1.39v-4.49h-2.91v5.42
				c0,1.88,1.06,3.05,2.82,3.05c1.18,0,1.94-0.63,2.48-1.32v1.13h2.91v-8.28H582V376.05z"/>
		</g>
		<g>
			<path class="st12" d="M589.53,373.24v-1.67h-2.91v8.28h2.91v-2.57c0-1.91,0.86-2.79,2.37-2.79h0.25v-3.06
				C590.77,371.37,590.01,372.1,589.53,373.24z"/>
		</g>
		<g>
			<path class="st12" d="M601.2,375.91c0-2.43-1.32-4.53-4.18-4.53c-2.45,0-4.18,1.91-4.18,4.33v0.03c0,2.57,1.84,4.3,4.44,4.3
				c1.65,0,2.8-0.67,3.6-1.68l-1.61-1.33c-0.6,0.58-1.15,0.84-1.84,0.84c-0.9,0-1.56-0.46-1.79-1.36h5.54
				C601.2,376.31,601.2,376.1,601.2,375.91z M595.59,375.03c0.15-0.9,0.67-1.5,1.44-1.5c0.8,0,1.33,0.58,1.44,1.5H595.59z"/>
		</g>
		<g>
			<path class="st12" d="M583.05,359.96c0.5-0.57,0.81-0.78,1.17-0.78c0.37,0,0.59,0.2,0.59,0.53c0,0.33-0.2,0.6-0.77,1.05
				l-2.37,1.81l-0.05,0.03v1.49h5.24v-1.66h-2.37l0.79-0.55c1-0.72,1.51-1.28,1.51-2.33c0-1.26-1.01-2.13-2.45-2.13
				c-1.32,0-2,0.54-2.67,1.4l-0.07,0.09l1.36,1.13L583.05,359.96z"/>
		</g>
	</g>
</g>
<g id="pipe">
	<g>
		<g>
			<path class="st12" d="M435.59,916.02h-9.87V379.11c0-7.39,6.02-13.41,13.41-13.41h56.38v9.87h-56.38c-1.95,0-3.54,1.59-3.54,3.54
				V916.02z"/>
		</g>
	</g>
</g>
<g id="co2">
	<g>
		<g>
			<g>
				<path class="st19" d="M428.08,521.99c0-1.35,1.1-2.45,2.47-2.45l0,0c1.36,0,2.47,1.1,2.47,2.45l0,0c0,1.37-1.1,2.48-2.47,2.48
					l0,0C429.18,524.48,428.08,523.36,428.08,521.99z M428.08,531.93c0-1.35,1.1-2.45,2.47-2.45l0,0c1.36,0,2.47,1.1,2.47,2.45l0,0
					c0,1.37-1.1,2.48-2.47,2.48l0,0C429.18,534.42,428.08,533.3,428.08,531.93z M428.08,541.87c0-1.35,1.1-2.45,2.47-2.45l0,0
					c1.36,0,2.47,1.1,2.47,2.45l0,0c0,1.37-1.1,2.48-2.47,2.48l0,0C429.18,544.35,428.08,543.24,428.08,541.87z M428.08,551.81
					c0-1.35,1.1-2.45,2.47-2.45l0,0c1.36,0,2.47,1.1,2.47,2.45l0,0c0,1.37-1.1,2.48-2.47,2.48l0,0
					C429.18,554.29,428.08,553.17,428.08,551.81z M428.08,561.75c0-1.35,1.1-2.45,2.47-2.45l0,0c1.36,0,2.47,1.1,2.47,2.45l0,0
					c0,1.37-1.1,2.48-2.47,2.48l0,0C429.18,564.23,428.08,563.11,428.08,561.75z M428.08,571.69c0-1.35,1.1-2.45,2.47-2.45l0,0
					c1.36,0,2.47,1.1,2.47,2.45l0,0c0,1.37-1.1,2.48-2.47,2.48l0,0C429.18,574.17,428.08,573.05,428.08,571.69z M428.08,581.63
					c0-1.35,1.1-2.45,2.47-2.45l0,0c1.36,0,2.47,1.1,2.47,2.45l0,0c0,1.37-1.1,2.48-2.47,2.48l0,0
					C429.18,584.11,428.08,582.99,428.08,581.63z M428.08,591.56c0-1.35,1.1-2.45,2.47-2.45l0,0c1.36,0,2.47,1.1,2.47,2.45l0,0
					c0,1.37-1.1,2.48-2.47,2.48l0,0C429.18,594.05,428.08,592.93,428.08,591.56z M428.08,601.5c0-1.35,1.1-2.45,2.47-2.45l0,0
					c1.36,0,2.47,1.1,2.47,2.45l0,0c0,1.37-1.1,2.48-2.47,2.48l0,0C429.18,603.99,428.08,602.87,428.08,601.5z M428.08,611.44
					c0-1.35,1.1-2.45,2.47-2.45l0,0c1.36,0,2.47,1.1,2.47,2.45l0,0c0,1.37-1.1,2.48-2.47,2.48l0,0
					C429.18,613.93,428.08,612.81,428.08,611.44z M428.08,621.38c0-1.35,1.1-2.45,2.47-2.45l0,0c1.36,0,2.47,1.1,2.47,2.45l0,0
					c0,1.37-1.1,2.48-2.47,2.48l0,0C429.18,623.86,428.08,622.75,428.08,621.38z M428.08,631.32c0-1.35,1.1-2.45,2.47-2.45l0,0
					c1.36,0,2.47,1.1,2.47,2.45l0,0c0,1.37-1.1,2.48-2.47,2.48l0,0C429.18,633.8,428.08,632.68,428.08,631.32z M428.08,641.26
					c0-1.35,1.1-2.45,2.47-2.45l0,0c1.36,0,2.47,1.1,2.47,2.45l0,0c0,1.37-1.1,2.48-2.47,2.48l0,0
					C429.18,643.74,428.08,642.62,428.08,641.26z M428.08,651.2c0-1.35,1.1-2.45,2.47-2.45l0,0c1.36,0,2.47,1.1,2.47,2.45l0,0
					c0,1.37-1.1,2.48-2.47,2.48l0,0C429.18,653.68,428.08,652.56,428.08,651.2z M428.08,661.14c0-1.35,1.1-2.45,2.47-2.45l0,0
					c1.36,0,2.47,1.1,2.47,2.45l0,0c0,1.37-1.1,2.48-2.47,2.48l0,0C429.18,663.62,428.08,662.5,428.08,661.14z M428.08,671.07
					c0-1.35,1.1-2.45,2.47-2.45l0,0c1.36,0,2.47,1.1,2.47,2.45l0,0c0,1.37-1.1,2.48-2.47,2.48l0,0
					C429.18,673.56,428.08,672.44,428.08,671.07z M428.08,681.01c0-1.35,1.1-2.45,2.47-2.45l0,0c1.36,0,2.47,1.1,2.47,2.45l0,0
					c0,1.37-1.1,2.48-2.47,2.48l0,0C429.18,683.5,428.08,682.38,428.08,681.01z M428.08,690.95c0-1.35,1.1-2.45,2.47-2.45l0,0
					c1.36,0,2.47,1.1,2.47,2.45l0,0c0,1.37-1.1,2.48-2.47,2.48l0,0C429.18,693.43,428.08,692.32,428.08,690.95z M428.08,700.89
					c0-1.35,1.1-2.45,2.47-2.45l0,0c1.36,0,2.47,1.1,2.47,2.45l0,0c0,1.37-1.1,2.48-2.47,2.48l0,0
					C429.18,703.37,428.08,702.26,428.08,700.89z M428.08,710.83c0-1.35,1.1-2.45,2.47-2.45l0,0c1.36,0,2.47,1.1,2.47,2.45l0,0
					c0,1.37-1.1,2.48-2.47,2.48l0,0C429.18,713.31,428.08,712.19,428.08,710.83z M428.08,720.77c0-1.35,1.1-2.45,2.47-2.45l0,0
					c1.36,0,2.47,1.1,2.47,2.45l0,0c0,1.37-1.1,2.48-2.47,2.48l0,0C429.18,723.25,428.08,722.13,428.08,720.77z M428.08,730.71
					c0-1.35,1.1-2.45,2.47-2.45l0,0c1.36,0,2.47,1.1,2.47,2.45l0,0c0,1.37-1.1,2.48-2.47,2.48l0,0
					C429.18,733.19,428.08,732.07,428.08,730.71z M428.08,740.65c0-1.35,1.1-2.45,2.47-2.45l0,0c1.36,0,2.47,1.1,2.47,2.45l0,0
					c0,1.37-1.1,2.48-2.47,2.48l0,0C429.18,743.13,428.08,742.01,428.08,740.65z M428.08,750.58c0-1.35,1.1-2.45,2.47-2.45l0,0
					c1.36,0,2.47,1.1,2.47,2.45l0,0c0,1.37-1.1,2.48-2.47,2.48l0,0C429.18,753.07,428.08,751.95,428.08,750.58z M428.08,760.52
					c0-1.35,1.1-2.45,2.47-2.45l0,0c1.36,0,2.47,1.1,2.47,2.45l0,0c0,1.37-1.1,2.48-2.47,2.48l0,0
					C429.18,763.01,428.08,761.89,428.08,760.52z M428.08,770.46c0-1.35,1.1-2.45,2.47-2.45l0,0c1.36,0,2.47,1.1,2.47,2.45l0,0
					c0,1.37-1.1,2.48-2.47,2.48l0,0C429.18,772.94,428.08,771.83,428.08,770.46z M428.08,780.4c0-1.35,1.1-2.45,2.47-2.45l0,0
					c1.36,0,2.47,1.1,2.47,2.45l0,0c0,1.37-1.1,2.48-2.47,2.48l0,0C429.18,782.88,428.08,781.77,428.08,780.4z M428.08,790.34
					c0-1.35,1.1-2.45,2.47-2.45l0,0c1.36,0,2.47,1.1,2.47,2.45l0,0c0,1.37-1.1,2.48-2.47,2.48l0,0
					C429.18,792.82,428.08,791.7,428.08,790.34z M428.08,800.28c0-1.35,1.1-2.45,2.47-2.45l0,0c1.36,0,2.47,1.1,2.47,2.45l0,0
					c0,1.37-1.1,2.48-2.47,2.48l0,0C429.18,802.76,428.08,801.64,428.08,800.28z M428.08,810.22c0-1.35,1.1-2.45,2.47-2.45l0,0
					c1.36,0,2.47,1.1,2.47,2.45l0,0c0,1.37-1.1,2.48-2.47,2.48l0,0C429.18,812.7,428.08,811.58,428.08,810.22z M428.08,820.16
					c0-1.35,1.1-2.45,2.47-2.45l0,0c1.36,0,2.47,1.1,2.47,2.45l0,0c0,1.37-1.1,2.48-2.47,2.48l0,0
					C429.18,822.64,428.08,821.52,428.08,820.16z M428.08,830.09c0-1.35,1.1-2.45,2.47-2.45l0,0c1.36,0,2.47,1.1,2.47,2.45l0,0
					c0,1.37-1.1,2.48-2.47,2.48l0,0C429.18,832.58,428.08,831.46,428.08,830.09z M428.08,840.03c0-1.35,1.1-2.45,2.47-2.45l0,0
					c1.36,0,2.47,1.1,2.47,2.45l0,0c0,1.37-1.1,2.48-2.47,2.48l0,0C429.18,842.52,428.08,841.4,428.08,840.03z M428.08,849.97
					c0-1.35,1.1-2.45,2.47-2.45l0,0c1.36,0,2.47,1.1,2.47,2.45l0,0c0,1.37-1.1,2.48-2.47,2.48l0,0
					C429.18,852.45,428.08,851.34,428.08,849.97z M428.08,859.91c0-1.35,1.1-2.45,2.47-2.45l0,0c1.36,0,2.47,1.1,2.47,2.45l0,0
					c0,1.37-1.1,2.48-2.47,2.48l0,0C429.18,862.39,428.08,861.28,428.08,859.91z M428.08,869.85c0-1.35,1.1-2.45,2.47-2.45l0,0
					c1.36,0,2.47,1.1,2.47,2.45l0,0c0,1.37-1.1,2.48-2.47,2.48l0,0C429.18,872.33,428.08,871.21,428.08,869.85z M428.08,880.01
					c0-1.35,1.1-2.45,2.47-2.45l0,0c1.36,0,2.47,1.1,2.47,2.45l0,0c0,1.37-1.1,2.48-2.47,2.48l0,0
					C429.18,882.49,428.08,881.37,428.08,880.01z M428.08,890.17c0-1.35,1.1-2.45,2.47-2.45l0,0c1.36,0,2.47,1.1,2.47,2.45l0,0
					c0,1.37-1.1,2.48-2.47,2.48l0,0C429.18,892.65,428.08,891.53,428.08,890.17z M428.08,900.33c0-1.35,1.1-2.45,2.47-2.45l0,0
					c1.36,0,2.47,1.1,2.47,2.45l0,0c0,1.37-1.1,2.48-2.47,2.48l0,0C429.18,902.81,428.08,901.69,428.08,900.33z M428.08,512.12
					c0-1.35,1.1-2.45,2.47-2.45l0,0c1.36,0,2.47,1.1,2.47,2.45l0,0c0,1.37-1.1,2.48-2.47,2.48l0,0
					C429.18,514.61,428.08,513.49,428.08,512.12z M428.08,502.26c0-1.35,1.1-2.45,2.47-2.45l0,0c1.36,0,2.47,1.1,2.47,2.45l0,0
					c0,1.37-1.1,2.48-2.47,2.48l0,0C429.18,504.74,428.08,503.62,428.08,502.26z M428.08,492.39c0-1.35,1.1-2.45,2.47-2.45l0,0
					c1.36,0,2.47,1.1,2.47,2.45l0,0c0,1.37-1.1,2.48-2.47,2.48l0,0C429.18,494.87,428.08,493.75,428.08,492.39z M428.08,482.52
					c0-1.35,1.1-2.45,2.47-2.45l0,0c1.36,0,2.47,1.1,2.47,2.45l0,0c0,1.37-1.1,2.48-2.47,2.48l0,0
					C429.18,485,428.08,483.88,428.08,482.52z M428.08,472.65c0-1.35,1.1-2.45,2.47-2.45l0,0c1.36,0,2.47,1.1,2.47,2.45l0,0
					c0,1.37-1.1,2.48-2.47,2.48l0,0C429.18,475.13,428.08,474.02,428.08,472.65z M428.08,462.8c0-1.36,1.1-2.47,2.47-2.47l0,0
					c1.36,0,2.47,1.1,2.47,2.47l0,0c0,1.35-1.1,2.47-2.47,2.47l0,0C429.18,465.27,428.08,464.15,428.08,462.8z M428.08,452.93
					c0-1.36,1.1-2.47,2.47-2.47l0,0c1.36,0,2.47,1.1,2.47,2.47l0,0c0,1.35-1.1,2.47-2.47,2.47l0,0
					C429.18,455.4,428.08,454.28,428.08,452.93z M428.08,443.06c0-1.37,1.1-2.47,2.47-2.47l0,0c1.36,0,2.47,1.1,2.47,2.47l0,0
					c0,1.35-1.1,2.47-2.47,2.47l0,0C429.18,445.53,428.08,444.41,428.08,443.06z M428.08,433.19c0-1.37,1.1-2.47,2.47-2.47l0,0
					c1.36,0,2.47,1.1,2.47,2.47l0,0c0,1.35-1.1,2.47-2.47,2.47l0,0C429.18,435.66,428.08,434.54,428.08,433.19z M428.08,423.33
					c0-1.37,1.1-2.47,2.47-2.47l0,0c1.36,0,2.47,1.1,2.47,2.47l0,0c0,1.35-1.1,2.47-2.47,2.47l0,0
					C429.18,425.79,428.08,424.67,428.08,423.33z M428.08,413.46c0-1.37,1.1-2.47,2.47-2.47l0,0c1.36,0,2.47,1.1,2.47,2.47l0,0
					c0,1.35-1.1,2.47-2.47,2.47l0,0C429.18,415.92,428.08,414.81,428.08,413.46z M428.08,403.59c0-1.37,1.1-2.47,2.47-2.47l0,0
					c1.36,0,2.47,1.1,2.47,2.47l0,0c0,1.35-1.1,2.47-2.47,2.47l0,0C429.18,406.06,428.08,404.94,428.08,403.59z M428.08,393.72
					c0-1.37,1.1-2.47,2.47-2.47l0,0c1.36,0,2.47,1.1,2.47,2.47l0,0c0,1.35-1.1,2.47-2.47,2.47l0,0
					C429.18,396.19,428.08,395.07,428.08,393.72z M428.08,383.85c0-1.37,1.1-2.47,2.47-2.47l0,0c1.36,0,2.47,1.1,2.47,2.47l0,0
					c0,1.35-1.1,2.47-2.47,2.47l0,0C429.18,386.32,428.08,385.2,428.08,383.85z M430.97,376.37c-1.09-0.82-1.3-2.37-0.48-3.45l0,0
					c0.82-1.09,2.37-1.3,3.45-0.48l0,0c1.09,0.82,1.3,2.37,0.48,3.45l0,0c-0.48,0.64-1.22,0.97-1.96,0.97l0,0
					C431.94,376.86,431.42,376.7,430.97,376.37z M488.01,370.64c0-1.36,1.1-2.47,2.47-2.47l0,0c1.37,0,2.47,1.1,2.47,2.47l0,0
					c0,1.37-1.1,2.47-2.47,2.47l0,0C489.12,373.11,488.01,372.01,488.01,370.64z M478.15,370.64c0-1.36,1.1-2.47,2.47-2.47l0,0
					c1.37,0,2.47,1.1,2.47,2.47l0,0c0,1.37-1.1,2.47-2.47,2.47l0,0C479.25,373.11,478.15,372.01,478.15,370.64z M468.28,370.64
					c0-1.36,1.1-2.47,2.47-2.47l0,0c1.37,0,2.47,1.1,2.47,2.47l0,0c0,1.37-1.1,2.47-2.47,2.47l0,0
					C469.38,373.11,468.28,372.01,468.28,370.64z M458.41,370.64c0-1.36,1.1-2.47,2.47-2.47l0,0c1.37,0,2.47,1.1,2.47,2.47l0,0
					c0,1.37-1.1,2.47-2.47,2.47l0,0C459.51,373.11,458.41,372.01,458.41,370.64z M448.54,370.64c0-1.36,1.1-2.47,2.47-2.47l0,0
					c1.37,0,2.47,1.1,2.47,2.47l0,0c0,1.37-1.1,2.47-2.47,2.47l0,0C449.64,373.11,448.54,372.01,448.54,370.64z M438.67,370.64
					c0-1.36,1.1-2.47,2.47-2.47l0,0c1.37,0,2.47,1.1,2.47,2.47l0,0c0,1.37-1.1,2.47-2.47,2.47l0,0
					C439.77,373.11,438.67,372.01,438.67,370.64z"/>
			</g>
		</g>
	</g>
</g>
<g id="co2_stored">
</g>
<g id="caprock_seal">
	<g>
		<path class="st6" d="M146.62,821.56v-0.04c0-3.37,2.62-6.21,6.38-6.21c2.44,0,4.07,1.06,5.08,2.66l-2.84,2.11
			c-0.57-0.79-1.21-1.25-2.22-1.25c-1.34,0-2.33,1.19-2.33,2.64v0.04c0,1.54,0.97,2.71,2.38,2.71c0.99,0,1.63-0.46,2.29-1.23
			l2.79,2.02c-1.1,1.63-2.68,2.73-5.3,2.73C149.26,827.75,146.62,824.93,146.62,821.56z"/>
		<path class="st6" d="M159.25,824.05v-0.04c0-2.46,1.87-3.74,4.66-3.74c1.1,0,2.18,0.22,2.86,0.46v-0.2c0-1.23-0.77-1.94-2.38-1.94
			c-1.25,0-2.22,0.24-3.28,0.66l-0.86-2.95c1.34-0.55,2.77-0.92,4.82-0.92c2.13,0,3.59,0.51,4.53,1.45c0.9,0.88,1.28,2.11,1.28,3.79
			v6.84h-4.14v-1.23c-0.81,0.9-1.94,1.5-3.5,1.5C160.99,827.72,159.25,826.43,159.25,824.05z M166.82,823.15v-0.55
			c-0.42-0.18-1.01-0.31-1.63-0.31c-1.21,0-1.91,0.59-1.91,1.47v0.04c0,0.81,0.62,1.3,1.47,1.3
			C165.96,825.1,166.82,824.34,166.82,823.15z"/>
		<path class="st6" d="M173.24,815.56h4.18v1.58c0.81-0.99,1.83-1.85,3.61-1.85c2.84,0,5.28,2.35,5.28,6.16v0.04
			c0,3.87-2.44,6.23-5.26,6.23c-1.8,0-2.86-0.81-3.63-1.72v4.97h-4.18V815.56z M182.2,821.52v-0.04c0-1.56-1.08-2.68-2.44-2.68
			c-1.34,0-2.42,1.12-2.42,2.68v0.04c0,1.58,1.08,2.71,2.42,2.71C181.12,824.22,182.2,823.12,182.2,821.52z"/>
		<path class="st6" d="M188.34,815.56h4.18v2.4c0.68-1.63,1.78-2.68,3.76-2.6v4.4h-0.35c-2.18,0-3.41,1.25-3.41,4v3.7h-4.18V815.56z
			"/>
		<path class="st6" d="M197.27,821.56v-0.04c0-3.39,2.77-6.23,6.6-6.23c3.81,0,6.56,2.79,6.56,6.18v0.04c0,3.39-2.77,6.23-6.6,6.23
			C200.02,827.75,197.27,824.95,197.27,821.56z M206.36,821.56v-0.04c0-1.45-1.06-2.68-2.53-2.68c-1.52,0-2.49,1.21-2.49,2.64v0.04
			c0,1.45,1.06,2.68,2.53,2.68C205.39,824.2,206.36,822.99,206.36,821.56z"/>
		<path class="st6" d="M211.92,821.56v-0.04c0-3.37,2.62-6.21,6.38-6.21c2.44,0,4.07,1.06,5.08,2.66l-2.84,2.11
			c-0.57-0.79-1.21-1.25-2.22-1.25c-1.34,0-2.33,1.19-2.33,2.64v0.04c0,1.54,0.97,2.71,2.38,2.71c0.99,0,1.63-0.46,2.29-1.23
			l2.79,2.02c-1.1,1.63-2.68,2.73-5.3,2.73C214.56,827.75,211.92,824.93,211.92,821.56z"/>
		<path class="st6" d="M225.14,811.4h4.18v8.14l3.23-3.98h4.73l-4.14,4.77l4.25,7.13h-4.6l-2.4-4.05l-1.08,1.25v2.79h-4.18V811.4z"
			/>
		<path class="st6" d="M244.04,825.96l1.56-2.53c1.36,0.9,2.86,1.36,4.09,1.36c0.73,0,1.06-0.22,1.06-0.64v-0.04
			c0-0.46-0.66-0.66-1.92-1.01c-2.35-0.62-4.22-1.41-4.22-3.81v-0.04c0-2.53,2.02-3.94,4.77-3.94c1.74,0,3.54,0.51,4.91,1.39
			l-1.43,2.64c-1.23-0.68-2.57-1.1-3.52-1.1c-0.64,0-0.97,0.24-0.97,0.57v0.04c0,0.46,0.68,0.68,1.94,1.06
			c2.36,0.66,4.22,1.47,4.22,3.78v0.04c0,2.62-1.96,3.98-4.86,3.98C247.67,827.72,245.69,827.15,244.04,825.96z"/>
		<path class="st6" d="M255.99,821.56v-0.04c0-3.48,2.49-6.23,6.01-6.23c4.11,0,6.01,3.01,6.01,6.51c0,0.26,0,0.57-0.02,0.86h-7.97
			c0.33,1.3,1.28,1.96,2.58,1.96c0.99,0,1.78-0.37,2.64-1.21l2.31,1.91c-1.14,1.45-2.79,2.42-5.17,2.42
			C258.63,827.75,255.99,825.26,255.99,821.56z M264.08,820.53c-0.15-1.32-0.92-2.16-2.07-2.16c-1.1,0-1.85,0.86-2.07,2.16H264.08z"
			/>
		<path class="st6" d="M269.41,824.05v-0.04c0-2.46,1.87-3.74,4.67-3.74c1.1,0,2.18,0.22,2.86,0.46v-0.2c0-1.23-0.77-1.94-2.38-1.94
			c-1.25,0-2.22,0.24-3.28,0.66l-0.86-2.95c1.34-0.55,2.77-0.92,4.82-0.92c2.13,0,3.59,0.51,4.53,1.45c0.9,0.88,1.28,2.11,1.28,3.79
			v6.84h-4.14v-1.23c-0.81,0.9-1.94,1.5-3.5,1.5C271.14,827.72,269.41,826.43,269.41,824.05z M276.97,823.15v-0.55
			c-0.42-0.18-1.01-0.31-1.63-0.31c-1.21,0-1.91,0.59-1.91,1.47v0.04c0,0.81,0.62,1.3,1.47,1.3
			C276.12,825.1,276.97,824.34,276.97,823.15z"/>
		<path class="st6" d="M283.49,811.4h4.18v16.06h-4.18V811.4z"/>
	</g>
</g>
<g id="Layer_13">
	<g>
		<g>
			<path class="st20" d="M403.05,951.09c0,0,29.62,19.23,60.67,25.2c38.71,7.43,70.74-9.74,95.27-38.08
				c21.98-25.39,44.94-65.52,23.4-83.66c-20.79-17.51-64.57-2.16-110.91,8.47c-47.05,10.79-68.53,12.79-90.01,20.4
				C363.34,889.83,356.49,919.83,403.05,951.09z"/>
		</g>
		<g>
			<path class="st21" d="M469.12,964.69c27.7,5.05,54.35-8.96,68.72-25.35c17.24-19.66,33.62-51.32,25.06-70.76
				c-6.96-15.8-30.55-7.05-41.56-4.35c-21.86,5.36-40.9,11.3-75.25,16.26c-35.13,5.07-48.57,8.21-51.43,19.78
				C389.4,921.48,423.37,956.34,469.12,964.69z"/>
		</g>
		<g>
			<path class="st22" d="M538.14,879.66c0,0,8.66,6.63,0.58,29.7c-7.46,21.3-32.7,44.88-59.15,43.05
				c-26.45-1.83-48.73-19.95-55.59-30.15c-10.04-14.92,0.34-27.17,20.55-30.12c32.98-4.81,44.47-7.41,59.07-12.1
				C519.91,874.79,530.73,872.4,538.14,879.66z"/>
		</g>
		<g>
			<path class="st9" d="M488.1,922.42c5.68,0,9.94-4.29,9.94-9.58v-0.05c0-5.29-4.21-9.52-9.89-9.52c-5.68,0-9.94,4.29-9.94,9.58
				v0.05C478.21,918.18,482.42,922.42,488.1,922.42z M483.44,912.79c0-2.66,1.87-4.92,4.66-4.92c2.81,0,4.74,2.31,4.74,4.97v0.05
				c0,2.66-1.87,4.92-4.68,4.92c-2.79,0-4.71-2.31-4.71-4.97V912.79z"/>
		</g>
		<g>
			<path class="st9" d="M502.9,915.5c0.86-0.98,1.39-1.33,2.01-1.33c0.64,0,1.02,0.34,1.02,0.91c0,0.57-0.35,1.04-1.32,1.8
				l-4.07,3.11l-0.08,0.06v2.56h9.01v-2.85h-4.07l1.36-0.95c1.72-1.24,2.6-2.2,2.6-4c0-2.16-1.73-3.66-4.21-3.66
				c-2.27,0-3.44,0.92-4.59,2.41l-0.12,0.15l2.33,1.94L502.9,915.5z"/>
		</g>
		<g>
			<path class="st9" d="M476.1,918.26l-3.84-2.74c-1.11,1.34-2.24,2.24-4.16,2.24c-2.58,0-4.39-2.16-4.39-4.92v-0.05
				c0-2.68,1.82-4.87,4.39-4.87c1.76,0,2.97,0.84,4.03,2.16l3.84-2.97c-1.63-2.26-4.05-3.84-7.81-3.84c-5.58,0-9.71,4.21-9.71,9.58
				v0.05c0,5.5,4.24,9.52,9.5,9.52C472.02,922.42,474.36,920.66,476.1,918.26z"/>
		</g>
	</g>
</g>
</svg>
